<svg width="20" height="20" viewBox="0 0 20 20" fill="none" xmlns="http://www.w3.org/2000/svg">
<path d="M12.1743 17.7085C15.2307 17.7085 17.7085 15.2307 17.7085 12.1743C17.7085 9.11787 15.2307 6.64014 12.1743 6.64014C9.11787 6.64014 6.64014 9.11787 6.64014 12.1743C6.64014 15.2307 9.11787 17.7085 12.1743 17.7085Z" stroke="#FC1C00" stroke-linecap="round" stroke-linejoin="round"/>
<path d="M10.4645 14.2894C10.6285 14.4962 10.8397 14.6607 11.0804 14.769C11.3211 14.8773 11.5843 14.9263 11.8479 14.9119H12.6783C13.0452 14.9119 13.3971 14.7661 13.6566 14.5066C13.916 14.2472 14.0618 13.8952 14.0618 13.5283C14.0618 13.1614 13.916 12.8095 13.6566 12.55C13.3971 12.2905 13.0452 12.1448 12.6783 12.1448H11.7787C11.4117 12.1448 11.0598 11.999 10.8004 11.7395C10.5409 11.4801 10.3951 11.1282 10.3951 10.7612C10.3951 10.3943 10.5409 10.0424 10.8004 9.78292C11.0598 9.52345 11.4117 9.37769 11.7787 9.37769H12.6091C12.8743 9.3478 13.1427 9.38982 13.3861 9.49935C13.6295 9.60887 13.8389 9.78187 13.9924 10.0002M12.1937 8.61685V15.5344M6.87285 10.2885C6.6862 10.1136 6.5376 9.90203 6.43631 9.66711C6.33501 9.43219 6.2832 9.17893 6.2841 8.9231V7.12435C6.28311 6.8788 6.33075 6.63547 6.42428 6.40842C6.5178 6.18137 6.65536 5.97509 6.82901 5.80147C7.00267 5.62785 7.20899 5.49034 7.43606 5.39687C7.66313 5.30339 7.90646 5.25581 8.15202 5.25685C8.42951 5.26186 8.70273 5.32616 8.95332 5.44546C9.20392 5.56476 9.42609 5.73628 9.60494 5.94852M5.4541 7.26269H7.80619M5.4541 8.64602H7.80619" stroke="#FC1C00" stroke-linecap="round" stroke-linejoin="round"/>
<path d="M6.67523 13.2393C5.701 13.0322 4.80072 12.566 4.06936 11.8898C3.33799 11.2137 2.80266 10.3527 2.51982 9.39771C2.23698 8.4427 2.21712 7.42906 2.46233 6.4637C2.70753 5.49834 3.20873 4.61705 3.91304 3.91279C4.61735 3.20852 5.49867 2.70739 6.46404 2.46224C7.42942 2.21709 8.44306 2.23702 9.39805 2.51992C10.353 2.80282 11.214 3.33821 11.8901 4.06961C12.5662 4.80102 13.0323 5.70133 13.2394 6.67558" stroke="#FC1C00" stroke-linecap="round" stroke-linejoin="round"/>
</svg>
