<svg width="20" height="20" viewBox="0 0 20 20" fill="none" xmlns="http://www.w3.org/2000/svg">
<path d="M13.5 13C13.3674 13 13.2402 13.0527 13.1464 13.1464C13.0527 13.2402 13 13.3674 13 13.5C13 13.6326 13.0527 13.7598 13.1464 13.8536C13.2402 13.9473 13.3674 14 13.5 14H15.5C15.6326 14 15.7598 13.9473 15.8536 13.8536C15.9473 13.7598 16 13.6326 16 13.5C16 13.3674 15.9473 13.2402 15.8536 13.1464C15.7598 13.0527 15.6326 13 15.5 13H13.5ZM2 6.75C2 6.02065 2.28973 5.32118 2.80546 4.80546C3.32118 4.28973 4.02065 4 4.75 4H15.25C15.9793 4 16.6788 4.28973 17.1945 4.80546C17.7103 5.32118 18 6.02065 18 6.75V13.25C18 13.9793 17.7103 14.6788 17.1945 15.1945C16.6788 15.7103 15.9793 16 15.25 16H4.75C4.02065 16 3.32118 15.7103 2.80546 15.1945C2.28973 14.6788 2 13.9793 2 13.25V6.75ZM4.75 5C4.28587 5 3.84075 5.18437 3.51256 5.51256C3.18437 5.84075 3 6.28587 3 6.75V8H17V6.75C17 6.28587 16.8156 5.84075 16.4874 5.51256C16.1592 5.18437 15.7141 5 15.25 5H4.75ZM17 9H3V13.25C3 14.216 3.784 15 4.75 15H15.25C15.7141 15 16.1592 14.8156 16.4874 14.4874C16.8156 14.1592 17 13.7141 17 13.25V9Z" fill="#FC1C00"/>
</svg>
