<svg width="20" height="20" viewBox="0 0 20 20" fill="none" xmlns="http://www.w3.org/2000/svg">
<path d="M16.25 5H18.75V20H2.5V5H5V3.75H6.25V5H15V3.75H16.25V5ZM17.5 6.25H16.25V7.5H17.5V6.25ZM15 6.25H6.25V7.5H15V6.25ZM5 6.25H3.75V7.5H5V6.25ZM3.75 18.75H17.5V8.75H3.75V18.75ZM2.5 3.75V2.5H1.25V16.25H0V1.25H2.5V0H3.75V1.25H12.5V0H13.75V1.25H16.25V2.5H13.75V3.75H12.5V2.5H3.75V3.75H2.5ZM6.25 13.75V12.5H7.5V13.75H6.25ZM8.75 13.75V12.5H10V13.75H8.75ZM11.25 13.75V12.5H12.5V13.75H11.25ZM13.75 13.75V12.5H15V13.75H13.75ZM6.25 16.25V15H7.5V16.25H6.25ZM8.75 16.25V15H10V16.25H8.75ZM11.25 16.25V15H12.5V16.25H11.25ZM8.75 11.25V10H10V11.25H8.75ZM11.25 11.25V10H12.5V11.25H11.25ZM13.75 11.25V10H15V11.25H13.75Z" fill="#FC1C00"/>
</svg>
