<svg width="24" height="23" viewBox="0 0 24 23" fill="none" xmlns="http://www.w3.org/2000/svg">
<path d="M17 4.79163C17.5304 4.79163 18.0391 4.99356 18.4142 5.353C18.7893 5.71245 19 6.19996 19 6.70829V19.1666C19 19.675 18.7893 20.1625 18.4142 20.5219C18.0391 20.8814 17.5304 21.0833 17 21.0833H10C9.46957 21.0833 8.96086 20.8814 8.58579 20.5219C8.21071 20.1625 8 19.675 8 19.1666H17V4.79163Z" fill="black"/>
<path d="M13 3.83329H5C5 3.32496 5.21071 2.83745 5.58579 2.478C5.96086 2.11856 6.46957 1.91663 7 1.91663H13C13.5304 1.91663 14.0391 2.11856 14.4142 2.478C14.7893 2.83745 15 3.32496 15 3.83329V15.3333C15 15.8416 14.7893 16.3291 14.4142 16.6886C14.0391 17.048 13.5304 17.25 13 17.25V3.83329Z" fill="black"/>
<path d="M7 15.3333H15C15 15.8416 14.7893 16.3291 14.4142 16.6886C14.0391 17.048 13.5304 17.25 13 17.25H7C6.46957 17.25 5.96086 17.048 5.58579 16.6886C5.21071 16.3291 5 15.8416 5 15.3333V3.83329C5 3.32496 5.21071 2.83745 5.58579 2.478C5.96086 2.11856 6.46957 1.91663 7 1.91663V15.3333Z" fill="black"/>
</svg>
