<svg width="23" height="23" viewBox="0 0 23 23" fill="none" xmlns="http://www.w3.org/2000/svg">
<path d="M16.2917 4.79175C16.8 4.79175 17.2875 4.99368 17.647 5.35313C18.0064 5.71257 18.2083 6.20008 18.2083 6.70841V19.1667C18.2083 19.6751 18.0064 20.1626 17.647 20.522C17.2875 20.8815 16.8 21.0834 16.2917 21.0834H9.58333C9.075 21.0834 8.58749 20.8815 8.22805 20.522C7.8686 20.1626 7.66667 19.6751 7.66667 19.1667H16.2917V4.79175Z" fill="black"/>
<path d="M12.4583 3.83341H4.79167C4.79167 3.32508 4.9936 2.83757 5.35305 2.47813C5.71249 2.11868 6.2 1.91675 6.70833 1.91675H12.4583C12.9667 1.91675 13.4542 2.11868 13.8136 2.47813C14.1731 2.83757 14.375 3.32508 14.375 3.83341V15.3334C14.375 15.8417 14.1731 16.3293 13.8136 16.6887C13.4542 17.0481 12.9667 17.2501 12.4583 17.2501V3.83341Z" fill="black"/>
<path d="M6.70833 15.3334H14.375C14.375 15.8417 14.1731 16.3293 13.8136 16.6887C13.4542 17.0481 12.9667 17.2501 12.4583 17.2501H6.70833C6.2 17.2501 5.71249 17.0481 5.35305 16.6887C4.9936 16.3293 4.79167 15.8417 4.79167 15.3334V3.83341C4.79167 3.32508 4.9936 2.83757 5.35305 2.47813C5.71249 2.11868 6.2 1.91675 6.70833 1.91675V15.3334Z" fill="black"/>
</svg>
