<svg width="20" height="20" viewBox="0 0 20 20" fill="none" xmlns="http://www.w3.org/2000/svg">
<g clip-path="url(#clip0_14_694)">
<path d="M6.66683 9.16683C7.7719 9.16683 8.83171 8.72784 9.61311 7.94644C10.3945 7.16504 10.8335 6.10523 10.8335 5.00016C10.8335 3.89509 10.3945 2.83529 9.61311 2.05388C8.83171 1.27248 7.7719 0.833496 6.66683 0.833496C5.56176 0.833496 4.50195 1.27248 3.72055 2.05388C2.93915 2.83529 2.50016 3.89509 2.50016 5.00016C2.50016 6.10523 2.93915 7.16504 3.72055 7.94644C4.50195 8.72784 5.56176 9.16683 6.66683 9.16683ZM6.66683 9.16683C8.34433 9.16683 9.81016 9.80016 10.8527 10.8527C11.4709 11.4792 11.9333 12.2422 12.2027 13.0802M6.66683 9.16683C3.3335 9.16683 0.833496 11.6668 0.833496 15.0002V19.1668H9.16683M10.0002 15.6868L13.4918 18.3335L19.1668 10.8335" stroke="#FC1C00" stroke-width="2"/>
</g>
<defs>
<clipPath id="clip0_14_694">
<rect width="20" height="20" fill="white"/>
</clipPath>
</defs>
</svg>
