<svg width="60" height="60" viewBox="0 0 60 60" fill="none" xmlns="http://www.w3.org/2000/svg">
<circle cx="30" cy="30" r="22" fill="white"/>
<path fill-rule="evenodd" clip-rule="evenodd" d="M30 52.5C32.9547 52.5 35.8806 51.918 38.6104 50.7873C41.3402 49.6566 43.8206 47.9992 45.9099 45.9099C47.9992 43.8206 49.6566 41.3402 50.7873 38.6104C51.918 35.8806 52.5 32.9547 52.5 30C52.5 27.0453 51.918 24.1194 50.7873 21.3896C49.6566 18.6598 47.9992 16.1794 45.9099 14.0901C43.8206 12.0008 41.3402 10.3434 38.6104 9.21271C35.8806 8.08198 32.9547 7.5 30 7.5C24.0326 7.5 18.3097 9.87053 14.0901 14.0901C9.87053 18.3097 7.5 24.0326 7.5 30C7.5 35.9674 9.87053 41.6903 14.0901 45.9099C18.3097 50.1295 24.0326 52.5 30 52.5ZM26.9575 19.975L41.0675 27.815C41.457 28.0316 41.7816 28.3484 42.0076 28.7325C42.2335 29.1167 42.3527 29.5543 42.3527 30C42.3527 30.4457 42.2335 30.8833 42.0076 31.2675C41.7816 31.6516 41.457 31.9684 41.0675 32.185L26.9575 40.025C26.5006 40.2789 25.9853 40.4091 25.4627 40.4026C24.94 40.3961 24.4281 40.2531 23.9777 39.9879C23.5273 39.7227 23.154 39.3443 22.8948 38.8904C22.6356 38.4365 22.4995 37.9227 22.5 37.4V22.6C22.4995 22.0773 22.6356 21.5635 22.8948 21.1096C23.154 20.6557 23.5273 20.2773 23.9777 20.0121C24.4281 19.7469 24.94 19.6039 25.4627 19.5974C25.9853 19.5909 26.5006 19.721 26.9575 19.975Z" fill="#FC1C00"/>
</svg>
