<svg width="44" height="52" viewBox="0 0 44 52" fill="none" xmlns="http://www.w3.org/2000/svg">
<path d="M8.78458 3.09979C9.08187 2.72443 9.22819 2.24073 9.19214 1.75252C9.15608 1.26431 8.94052 0.810512 8.59172 0.488552C8.24293 0.166592 7.78872 0.00213425 7.32659 0.0304843C6.86446 0.0588344 6.43126 0.277732 6.11998 0.640185L3.07339 4.33209C1.34584 6.42642 0.369269 9.09658 0.314474 11.8756L0.180066 18.6582C0.170372 19.1544 0.347403 19.6343 0.672213 19.9924C0.997023 20.3506 1.44301 20.5575 1.91205 20.5678C2.38109 20.578 2.83478 20.3907 3.1733 20.0471C3.51182 19.7035 3.70744 19.2317 3.71714 18.7355L3.84919 11.9554C3.88702 10.0539 4.5556 8.22696 5.73798 6.7942L8.78458 3.09979Z" fill="#333333"/>
<path fill-rule="evenodd" clip-rule="evenodd" d="M8.33186 16.2891C8.49022 13.6203 9.60407 11.1157 11.4467 9.28509C13.2892 7.45449 15.7221 6.43557 18.2498 6.43574H19.5632V4.56485C19.5632 3.90325 19.8117 3.26876 20.2539 2.80094C20.6961 2.33313 21.2959 2.07031 21.9213 2.07031C22.5467 2.07031 23.1465 2.33313 23.5887 2.80094C24.0309 3.26876 24.2793 3.90325 24.2793 4.56485V6.43574H25.5928C28.1205 6.43557 30.5533 7.45449 32.3959 9.28509C34.2385 11.1157 35.3523 13.6203 35.5107 16.2891L36.0318 25.1048C36.2304 28.4661 37.2973 31.7053 39.1162 34.4693C39.492 35.0407 39.7216 35.7053 39.7827 36.3984C39.8438 37.0914 39.7343 37.7895 39.4649 38.4245C39.1955 39.0596 38.7753 39.6101 38.2452 40.0225C37.7151 40.4349 37.0931 40.6952 36.4398 40.778L28.4059 41.7957V44.4774C28.4059 46.2967 27.7227 48.0416 26.5066 49.3281C25.2905 50.6146 23.6411 51.3373 21.9213 51.3373C20.2015 51.3373 18.5521 50.6146 17.336 49.3281C16.1199 48.0416 15.4367 46.2967 15.4367 44.4774V41.7957L7.40279 40.7755C6.74984 40.6924 6.12828 40.4322 5.59852 40.0199C5.06876 39.6077 4.64879 39.0575 4.37943 38.4228C4.11006 37.7881 4.00045 37.0905 4.06125 36.3978C4.12205 35.705 4.35119 35.0407 4.72641 34.4693C6.54517 31.7052 7.61202 28.4661 7.81073 25.1048L8.33186 16.2891ZM18.9737 44.4774C18.9737 45.3044 19.2843 46.0975 19.837 46.6823C20.3898 47.267 21.1395 47.5955 21.9213 47.5955C22.703 47.5955 23.4527 47.267 24.0055 46.6823C24.5583 46.0975 24.8688 45.3044 24.8688 44.4774V42.6065H18.9737V44.4774Z" fill="#333333"/>
<path d="M35.2278 0.460962C34.8746 0.787181 34.6582 1.24846 34.6264 1.74338C34.5946 2.2383 34.7498 2.72634 35.0581 3.10018L38.1047 6.79209C39.2867 8.22585 39.9545 10.0537 39.9911 11.9558L40.1255 18.7334C40.1303 18.9791 40.1808 19.2214 40.2741 19.4464C40.3674 19.6715 40.5017 19.8749 40.6693 20.045C40.837 20.2152 41.0346 20.3487 41.251 20.438C41.4674 20.5274 41.6983 20.5707 41.9306 20.5657C42.1628 20.5606 42.3919 20.5072 42.6046 20.4084C42.8173 20.3097 43.0096 20.1677 43.1704 19.9903C43.3312 19.813 43.4575 19.6039 43.5419 19.375C43.6264 19.1461 43.6674 18.9018 43.6626 18.6561L43.5282 11.8759C43.4734 9.09696 42.4968 6.4268 40.7692 4.33248L37.7226 0.640568C37.4143 0.266858 36.9782 0.0380015 36.5104 0.00432088C36.0426 -0.0293598 35.5812 0.134893 35.2278 0.460962Z" fill="#333333"/>
</svg>
