<svg width="45" height="43" viewBox="0 0 45 43" fill="none" xmlns="http://www.w3.org/2000/svg">
<path d="M23.8963 0C25.3485 2.07211 26.6719 4.22972 27.8594 6.46086C28.0341 6.43639 28.2103 6.42401 28.3867 6.42383C29.0989 6.42398 29.7966 6.62262 30.4 6.997C31.0034 7.37139 31.4881 7.90638 31.7986 8.54074C33.4868 8.3913 35.1799 8.30283 36.8745 8.27551C37.8509 8.26049 38.8313 8.2665 39.8162 8.29152C36.0843 3.5297 30.3774 0.366833 23.8963 0ZM20.8232 0.0400363C20.7489 0.0460417 20.674 0.0500453 20.5997 0.0565512C18.8933 3.51269 17.5584 6.92778 16.6043 10.2983C17.0135 10.549 17.3708 10.8744 17.657 11.2572C19.9571 10.5685 22.291 9.99555 24.6497 9.54065C24.7756 8.81711 25.1131 8.14599 25.6205 7.6104C24.2568 5.05108 22.6626 2.52679 20.8232 0.0400363ZM17.567 0.5515C12.2953 1.79446 7.68354 4.94325 4.63736 9.37951C6.97115 9.90928 9.28164 10.5351 11.5628 11.2552C11.8701 10.8452 12.2587 10.5016 12.7048 10.2453C13.1508 9.98909 13.645 9.82559 14.1571 9.76486C15.004 6.71059 16.1407 3.6368 17.567 0.5515ZM38.3595 10.7698C36.245 10.7563 34.1528 10.8418 32.0808 11.02C31.8965 11.8113 31.458 12.5222 30.8309 13.0458C31.5283 14.9017 32.1219 16.7941 32.6091 18.7145C33.1045 18.7665 33.5847 18.9147 34.0222 19.1505C34.4597 19.3863 34.846 19.7051 35.159 20.0887C38.09 19.2196 41.0751 18.54 44.0953 18.0544C43.6882 15.5261 42.8256 13.0907 41.5485 10.8644C40.4801 10.8093 39.4173 10.7768 38.3595 10.7698ZM3.28028 11.6516C2.18619 13.7602 1.45401 16.0343 1.11371 18.3807C4.29505 16.573 7.5305 14.9956 10.8216 13.6574C10.8212 13.6524 10.8209 13.6474 10.8206 13.6424C8.37741 12.8707 5.86045 12.2136 3.28028 11.6516ZM25.0694 11.9939C22.8195 12.4282 20.5931 12.9744 18.3988 13.6304C18.3971 13.6729 18.3948 13.7155 18.3917 13.758C22.3106 15.4015 26.075 17.385 29.6407 19.6854C29.8063 19.5348 29.9852 19.3992 30.1751 19.28C29.7125 17.4668 29.1494 15.6801 28.4884 13.9281C28.4545 13.9292 28.4206 13.9299 28.3867 13.9301C27.7095 13.9299 27.0447 13.7501 26.4614 13.4095C25.8781 13.0689 25.3977 12.5799 25.0699 11.9934M11.762 15.9675C8.07505 17.4718 4.4523 19.292 0.889718 21.4109C0.889718 21.4344 0.887695 21.457 0.887695 21.4805C0.887695 27.1686 3.10887 32.3293 6.73567 36.1723C8.80431 34.341 10.9627 32.6115 13.203 30.9901C12.2525 26.3364 12.1144 21.5791 12.7374 16.7547C12.3701 16.5484 12.0403 16.2828 11.7615 15.969M17.3845 16.0486C16.802 16.6679 16.0251 17.0742 15.18 17.2016C14.6481 21.3529 14.7239 25.4321 15.4368 29.4347C19.5617 26.6647 23.8867 24.3356 28.4171 22.4714C28.417 22.4635 28.417 22.4557 28.4171 22.4479C28.4175 22.2653 28.4313 22.083 28.4585 21.9024C24.9537 19.6235 21.2472 17.6642 17.3845 16.0486ZM44.3471 20.5496C41.5275 21.0111 38.7401 21.6476 36.0013 22.4554C36.0003 22.9995 35.8797 23.5369 35.6479 24.0303C38.0551 25.9772 40.3301 28.079 42.4581 30.322C43.7221 27.5425 44.3741 24.5286 44.3708 21.4805C44.3708 21.1682 44.3607 20.8584 44.3471 20.5496ZM29.2706 24.8175C24.631 26.7347 20.2144 29.163 16.0036 32.0771C16.9239 35.7494 18.3886 39.3552 20.4172 42.8904C21.1443 42.963 21.8825 43 22.6293 43C25.578 43 28.3867 42.4195 30.9482 41.3715C31.8042 36.1598 31.9726 31.0767 31.4194 26.1177C30.5744 25.9393 29.8163 25.4806 29.2706 24.8175ZM33.9126 25.8484C34.4334 30.4776 34.355 35.2019 33.7053 40.0073C36.7771 38.2082 39.3551 35.6897 41.2127 32.6731C38.9508 30.2254 36.5109 27.9447 33.9126 25.8494M13.8345 33.634C12.0219 34.9859 10.2661 36.4109 8.57157 37.9054C11.0852 40.0179 14.0532 41.5341 17.249 42.3384C15.7731 39.4878 14.639 36.5832 13.8345 33.634Z" fill="black"/>
</svg>
